<svg width="92" height="100" viewBox="0 0 92 100" fill="none" xmlns="http://www.w3.org/2000/svg">
<path fill-rule="evenodd" clip-rule="evenodd" d="M23.3667 94.5681C23.2368 94.6473 23.0688 94.6213 22.9688 94.5063C22.3681 93.9787 21.6902 93.5528 21.0729 93.0453C20.7429 92.7703 20.3912 92.5226 20.021 92.3049C19.7503 92.1484 19.547 91.904 19.2879 91.7256L19.2159 91.6788C18.8988 91.4846 18.6415 91.2043 18.3359 90.9864C18.0779 90.8024 17.8924 90.5297 17.6339 90.3326C17.2614 90.0415 16.9036 89.7319 16.5622 89.4046C16.318 89.2216 16.1092 88.9953 15.9462 88.7371C15.9095 88.6633 15.8423 88.6475 15.7937 88.602C15.5784 88.4128 15.375 88.2105 15.1845 87.9964C14.7938 87.532 14.3589 87.1055 13.9758 86.6359C13.6981 86.2949 13.4015 85.9724 13.1141 85.6406C12.8379 85.3211 12.568 84.9961 12.3043 84.6657C11.6843 83.8946 11.1098 83.0878 10.5839 82.2493C10.1803 81.5878 9.81435 80.904 9.48769 80.2011C9.19987 79.6422 8.94961 79.0648 8.73833 78.4726C8.58524 77.9945 8.3619 77.5357 8.25437 77.0525C8.15287 76.5965 8.02599 76.1433 7.91397 75.6932C7.65432 74.6509 7.43702 73.6015 7.26191 72.5447C7.15802 71.9227 7.06689 71.2945 6.95375 70.6763C6.82085 69.951 6.77108 69.2161 6.64055 68.4908C6.56443 68.066 6.54171 67.6162 6.4918 67.1803C6.44343 66.7582 6.45423 66.3319 6.3795 65.9131C6.3195 65.4927 6.28094 65.0697 6.2637 64.6455C6.23468 64.2518 6.11243 63.8377 6.24211 63.4338C6.03882 63.1511 6.17832 62.8236 6.14551 62.5204C6.11271 62.2174 6.09995 61.9088 6.04962 61.6141C5.99775 61.3102 5.9533 60.9991 5.91068 60.6972C5.82376 60.0842 5.67894 59.483 5.59131 58.8738C5.53748 58.502 5.37625 58.1733 5.29227 57.8164C5.12768 57.1337 4.89565 56.4691 4.59983 55.8323C4.4759 55.579 4.39122 55.3083 4.3486 55.0294C4.3214 54.817 4.124 54.7267 4.06582 54.5331C3.97189 54.2199 3.82524 53.9229 3.70691 53.6172C3.68602 53.5133 3.61087 53.4288 3.51035 53.3962L3.59125 53.1277C3.54821 53.0182 3.50404 53.1481 3.44502 53.1134C3.38474 52.9925 3.28856 52.8774 3.30566 52.7125C3.32221 52.5575 3.14675 52.5116 3.10935 52.3673C3.0268 52.0537 2.68135 51.8402 2.75375 51.4605C2.51635 51.245 2.43586 50.9327 2.27423 50.6702C2.1891 50.5477 2.15028 50.3989 2.16399 50.2508L2.16808 50.2166C2.19506 50.0718 1.91028 50.0551 2.02026 49.8703C1.64963 49.4728 1.63124 48.9269 1.48228 48.4511C1.24349 47.6877 0.945293 46.9382 0.83427 46.1289C0.778611 45.724 0.603658 45.3195 0.539251 44.9081C0.394231 43.9831 0.186051 43.0668 0.151787 42.1244C0.137823 41.7351 0.0373157 41.3489 0.0269971 40.9592L0.0151917 40.5088C-0.00151991 39.8331 -0.0110386 39.157 0.0225528 38.4813C0.00628988 38.3245 0.0341326 38.1664 0.102928 38.0247C0.204038 37.8676 0.0339085 37.7255 0.0486292 37.5524C0.0651165 37.3471 0.179252 37.1699 0.159105 36.9453C0.148002 36.8215 0.213165 36.6373 0.200645 36.4937C0.160156 36.0269 0.391595 35.5936 0.340143 35.1281C0.349816 34.9532 0.398255 34.7829 0.481925 34.6292C0.667294 34.1 0.601388 33.5144 0.858426 33.011C0.981114 32.762 1.04431 32.4881 1.04339 32.2109L1.04141 32.1038C1.04047 32.0246 1.04402 31.9481 1.09064 31.9031C1.28573 31.715 1.27944 31.4494 1.36063 31.2228C1.44754 30.9799 1.4495 30.7097 1.56966 30.4679C1.71632 30.2364 1.8208 29.9806 1.87823 29.7124C1.92068 29.248 2.1464 28.8642 2.31515 28.4559C2.39936 28.2519 2.40495 27.9926 2.66538 27.8758C2.79784 27.8163 2.546 27.6111 2.73603 27.5234L2.75811 27.5144C2.89477 27.466 2.90935 27.3513 2.89828 27.2091C2.88813 27.0789 3.11973 27.0311 3.0802 26.893C3.04065 26.7546 3.04533 26.5643 3.12182 26.5536C3.3131 26.5261 3.16394 26.296 3.32235 26.2853C3.33875 26.2798 3.35165 26.267 3.35726 26.2507C3.49325 25.7816 3.8687 25.4434 4.02853 24.979C4.1362 24.7038 4.29462 24.4515 4.49566 24.2353C4.66811 24.0228 4.82261 23.7963 4.95762 23.5582C5.20282 23.1609 5.55654 22.8555 5.7953 22.4592C5.85993 22.352 6.15014 22.4431 6.04065 22.1801C6.22459 22.1494 6.2037 21.96 6.29314 21.8597C6.38483 21.7883 6.4869 21.7314 6.59583 21.6912C6.70434 21.4494 6.86809 21.2366 7.0739 21.07C7.4502 20.6836 7.8506 20.3214 8.2726 19.9856L8.62071 19.7099C9.08602 19.3428 9.56214 18.9872 10.1271 18.7771C10.2724 18.7232 10.2383 18.566 10.3606 18.5059C11.0702 18.1512 11.7414 17.7254 12.5179 17.4989C12.8428 17.4039 13.1453 17.1867 13.4779 17.0869C14.1455 16.8863 14.7807 16.5971 15.4865 16.4918C15.9043 16.4298 16.3278 16.2986 16.7537 16.2243C17.6335 16.0452 18.5316 15.9729 19.4287 16.009L19.9797 16.0444C20.4695 16.076 20.9592 16.1119 21.447 16.1844C21.6778 16.2187 21.8853 16.3308 22.1 16.3415C22.3094 16.3518 22.5143 16.4054 22.702 16.4989C22.8507 16.5705 23.0068 16.4588 23.1625 16.5612C23.2774 16.6653 23.4356 16.7058 23.5853 16.6711L23.6152 16.6631C23.7032 16.6308 23.8452 16.7445 23.962 16.7936C24.1351 16.8498 24.3018 16.9239 24.4596 17.0147C24.5794 17.0984 24.7802 16.933 24.8346 17.1562C25.0223 17.0567 25.1624 17.1949 25.3163 17.255L25.3375 17.2627C25.4921 17.315 25.6397 17.3885 25.7905 17.4527L26.2931 17.6665C26.4334 17.7512 26.5864 17.8129 26.7462 17.8493C27.0433 17.8667 27.2785 18.0497 27.5649 18.1054C27.8811 18.1916 28.1856 18.3167 28.4712 18.4779C28.7289 18.6012 29.0247 18.541 29.2815 18.692C29.5231 18.8568 29.7962 18.9696 30.0835 19.023C30.3782 19.0522 30.6241 19.2419 30.8872 19.2579L30.9368 19.2589C31.2735 19.2518 31.4993 19.4928 31.7932 19.5252C32.4339 19.5957 33.0303 19.8678 33.6575 19.9506C34.4488 20.0549 35.222 20.257 36.0227 20.3232C36.5429 20.3662 37.067 20.3928 37.5878 20.4361C38.1097 20.459 38.6325 20.4374 39.1506 20.3716C39.7996 20.3068 40.4423 20.1897 41.0723 20.0213C41.7087 19.8591 42.3131 19.6018 42.944 19.4302C43.2318 19.3519 43.4987 19.2225 43.791 19.1523C44.1058 19.077 44.3916 18.8782 44.7067 18.8016C45.4949 18.6099 46.2181 18.2057 47.0313 18.1022C47.9688 17.6921 48.9939 17.6204 49.9669 17.3453C50.4193 17.2169 50.9041 17.2075 51.3771 17.1489L51.4784 17.1355C52.3156 17.0184 53.1589 16.9865 54.0022 16.9466C54.776 16.9163 55.551 16.9371 56.3219 17.0089C56.8771 17.0558 57.4302 17.1299 57.9858 17.1664C58.2111 17.1814 58.4004 17.3761 58.6402 17.28C59.1029 17.4987 59.6415 17.4277 60.0997 17.6634C60.439 17.6247 60.7209 17.797 61.0017 17.937C61.2161 18.0444 61.4537 17.9423 61.6647 18.0818C61.8536 18.2275 62.0773 18.3206 62.3136 18.3518C62.7133 18.3608 63.0267 18.564 63.3679 18.7024C64.1605 19.0241 64.9476 19.3596 65.7293 19.709C65.9853 19.8235 66.2907 19.8508 66.4839 20.0971C66.6535 20.3131 66.991 20.2562 67.1512 20.5043C67.2098 20.5945 67.3283 20.4606 67.4267 20.5384C67.6187 20.6902 67.9045 20.663 68.0663 20.9043C68.1862 21.083 68.4814 21.0287 68.6115 21.2418L68.6282 21.2726C68.7004 21.4233 69.009 21.1527 69.0316 21.4639C69.3298 21.5407 69.5513 21.7505 69.8007 21.9116C70.0073 22.0446 70.2799 22.0383 70.4469 22.2691C70.5892 22.4656 70.9349 22.4006 71.0396 22.6761C71.4027 22.7433 71.6227 23.0641 71.9565 23.1972C72.2073 23.313 72.4416 23.462 72.6529 23.6403C72.992 23.8989 73.339 24.1474 73.6903 24.3871C73.816 24.4752 73.9368 24.5703 74.0519 24.6719C74.1168 24.7271 74.1178 24.8244 74.2172 24.8656C74.846 25.1269 75.3291 25.6072 75.8292 26.0411C76.1188 26.2629 76.3903 26.5077 76.6409 26.7728L76.7238 26.8619C76.7953 26.9497 76.9642 27.0166 77.0206 27.1311C77.1779 27.4499 77.4631 27.6426 77.7137 27.8616L77.7552 27.8984C77.8968 28.0199 78.0201 28.1614 78.1212 28.3184C78.1402 28.3484 78.1401 28.4059 78.1641 28.4164C78.6095 28.6143 78.8193 29.0498 79.1279 29.3828C79.4265 29.7048 79.6653 30.0825 79.9712 30.3958C80.5878 31.0277 86.8095 40.9281 87.4257 42.5557L87.6019 43.0215C87.7777 43.4881 87.9502 43.9571 88.1014 44.4313L88.2303 44.8348C88.3587 45.2391 88.4836 45.6456 88.5854 46.0546L88.7217 46.6006C88.9929 47.6931 89.2537 48.7889 89.4448 49.9011C89.615 50.8933 89.7249 51.8906 89.8373 52.8892C89.9091 53.5303 89.9527 54.1692 89.9712 54.8128C90.0008 55.8412 90.0076 56.8699 89.9916 57.8985C89.975 58.8669 89.7518 59.8129 89.7872 60.7793C89.5561 61.3282 89.6939 61.951 89.4445 62.496C89.5054 62.7975 89.3568 63.0731 89.2974 63.3492C89.2363 63.6344 89.2475 63.9465 89.0822 64.2171C89.0068 64.34 89.0998 64.5202 89.0058 64.67C88.9104 64.7915 88.874 64.9495 88.9067 65.1008C88.697 65.156 88.9041 65.3348 88.801 65.4483C88.6897 65.5714 88.6225 65.7283 88.6102 65.8939C88.6025 66.2683 88.3344 66.5679 88.3131 66.9035C88.2922 67.2471 88.0765 67.5032 88.0239 67.8051L88.016 67.8622C87.975 68.2634 87.6406 68.5119 87.5652 68.8849C87.5586 68.9177 87.476 68.9343 87.428 68.9593C87.4268 69.046 87.523 69.0434 87.5772 69.1205C87.4561 69.1936 87.3455 69.2832 87.2487 69.3865C87.1628 69.5366 87.0927 69.6953 87.0394 69.8599L87.2458 70.2533C87.1123 70.4341 87.115 70.6204 86.956 70.7525C86.8867 70.8101 86.8823 71.0232 86.85 71.1652C86.8075 71.3517 86.5472 71.4213 86.579 71.58C86.5937 71.7588 86.5475 71.9373 86.4476 72.0863C85.8351 73.5502 85.2164 75.0115 84.5917 76.4701C84.5254 76.6266 84.522 76.8375 84.3053 76.8977C84.4839 77.1628 84.1269 77.1812 84.0901 77.3599C84.0327 77.5227 83.9403 77.671 83.8194 77.794C83.6368 78.0318 83.5671 78.3547 83.4375 78.6362C83.3804 78.8413 83.2667 79.0261 83.1095 79.1694C82.9522 79.2842 82.929 79.5287 82.7946 79.7052C82.6118 79.9149 82.4578 80.1483 82.3363 80.3988C82.2804 80.5845 82.1736 80.7505 82.0282 80.8782C81.9015 80.9769 81.9457 81.2357 81.7242 81.2878C81.6065 81.6187 81.3555 81.8567 81.1529 82.129L81.1155 82.1804C80.6116 82.8841 80.0661 83.5568 79.4819 84.195C78.9952 84.7329 78.5174 85.2792 78.0255 85.8123C77.8657 85.9841 77.6982 86.1541 77.5276 86.3139C76.9285 86.9068 76.2972 87.4662 75.6364 87.9893C75.0375 88.437 74.4581 88.9129 73.8375 89.3356C73.5077 89.5605 73.218 89.857 72.8933 90.1004C72.128 90.675 71.3486 91.228 70.5411 91.7408C69.8509 92.22 69.1161 92.631 68.3468 92.9681C68.1396 93.0492 67.9561 93.1896 67.7532 93.2844C67.5125 93.3669 67.2778 93.4665 67.0513 93.5824C66.7798 93.761 66.4697 93.8504 66.1989 94.0125C65.9886 94.1383 65.7125 93.9966 65.5319 94.2576C65.4004 94.4477 65.0575 94.3089 64.895 94.5293C64.5642 94.4821 64.3543 94.7749 64.0372 94.8272L63.9951 94.8327C63.6654 94.8632 63.3519 95.0708 63.0314 95.2007C62.718 95.3495 62.3952 95.4772 62.0648 95.5827C61.4522 95.739 60.8934 96.0436 60.292 96.2106C59.7186 96.3696 59.1776 96.6551 58.5759 96.6939C58.4337 96.7029 58.4379 96.8281 58.335 96.863C58.2279 96.8997 58.1274 96.8451 58.0283 96.8917C57.6213 97.0663 57.2011 97.2078 56.7717 97.3151C56.1678 97.4874 55.5576 97.6431 54.9568 97.8198C54.0234 98.079 53.0769 98.2886 52.1215 98.448C51.5008 98.5614 50.8761 98.653 50.2533 98.7511L49.3848 98.8884C48.9506 98.9569 48.516 99.0235 48.0809 99.0824C47.5274 99.1569 46.9697 99.194 46.4154 99.2622C45.9767 99.3153 45.5389 99.3871 45.102 99.4587C44.4981 99.5578 43.8896 99.6355 43.2869 99.7305C42.4325 99.8604 41.5717 99.9425 40.7082 99.9761C40.2712 100.006 39.8328 100.008 39.3957 99.9819C39.1522 99.9606 38.9075 99.9549 38.6633 99.9643L38.5412 99.9703C37.973 100.009 37.4298 99.8932 36.8758 99.8458C36.7054 99.8305 36.5484 99.7789 36.389 99.7478L36.3204 99.7359C36.1832 99.7152 36.0511 99.6847 35.9177 99.6557L35.8173 99.6345C35.3436 99.5379 34.8865 99.3585 34.4002 99.3242L34.3086 99.3195C34.2738 99.3194 34.2396 99.3111 34.2086 99.2953C33.7335 99.0259 33.175 99.0056 32.6825 98.779L32.5964 98.7369C32.1395 98.4989 31.591 98.5018 31.141 98.2292C30.7965 98.2855 30.5406 98.0253 30.234 97.9697C29.4421 97.8257 28.7486 97.4321 28.0192 97.1318L27.9239 97.0931C27.1627 96.791 26.4155 96.4531 25.6605 96.1356C25.1434 95.881 24.648 95.5846 24.1792 95.2492C24.081 95.1557 23.9713 95.0753 23.8526 95.0101C23.6356 94.9382 23.4591 94.7777 23.3667 94.5681Z" fill="#4847FA"/>
<path d="M7 94V47.4545H39.7273V57.6364H19.6364V65.6364H37.7273V75.8182H19.6364V94H7Z" fill="#F5F5F5"/>
<path d="M65.9091 62H48V15.4545H65.7273C70.5152 15.4545 74.6515 16.3864 78.1364 18.25C81.6364 20.0985 84.3333 22.7651 86.2273 26.25C88.1364 29.7197 89.0909 33.8788 89.0909 38.7273C89.0909 43.5758 88.1439 47.7424 86.25 51.2273C84.3561 54.697 81.6742 57.3636 78.2045 59.2273C74.7348 61.0758 70.6364 62 65.9091 62ZM60.6364 51.2727H65.4545C67.7576 51.2727 69.7197 50.9015 71.3409 50.1591C72.9773 49.4167 74.2197 48.1364 75.0682 46.3182C75.9318 44.5 76.3636 41.9697 76.3636 38.7273C76.3636 35.4848 75.9242 32.9545 75.0455 31.1364C74.1818 29.3182 72.9091 28.0379 71.2273 27.2955C69.5606 26.553 67.5152 26.1818 65.0909 26.1818H60.6364V51.2727Z" fill="#F5F5F5"/>
<path d="M82 94.7273C80.2424 94.7273 78.7348 94.1136 77.4773 92.8864C76.2348 91.6439 75.6212 90.1364 75.6364 88.3636C75.6212 86.6364 76.2348 85.1591 77.4773 83.9318C78.7348 82.7045 80.2424 82.0909 82 82.0909C83.6667 82.0909 85.1364 82.7045 86.4091 83.9318C87.697 85.1591 88.3485 86.6364 88.3636 88.3636C88.3485 89.5455 88.0379 90.6212 87.4318 91.5909C86.8409 92.5455 86.0682 93.3106 85.1136 93.8864C84.1591 94.447 83.1212 94.7273 82 94.7273Z" fill="#F5F5F5"/>
</svg>
